<svg xmlns="http://www.w3.org/2000/svg" viewBox="0 0 146.4 147.2">
<path d="M109.8,58.2V21.6c-20.2,0-36.6,16.4-36.6,36.6c0-20.2-16.4-36.6-36.6-36.6v36.6H0c0.1,2.6,0.4,6.9,1.5,12.1
	c6.5,30,32.7,49.7,47,52.9c8.4,1.9,18.5,2.3,18.5,2.3c2.6,0.1,4.7,0.1,6.2,0.1s3.7,0,6.2-0.1c0,0,10.2-0.4,18.5-2.3
	c14.2-3.3,40.4-23,47-52.9c1.1-5.2,1.4-9.5,1.5-12.1C146.4,58.2,109.8,58.2,109.8,58.2z M43.8,83.8L43.8,83.8c0,5.5,0,10.9,0,16.3
	c-1,0.1-7.6,0.4-12.3-4.7c-4.1-4.4-3.9-9.8-3.9-11.5l0,0l0,0c0-1.7-0.2-7.1,3.9-11.5c4.7-5.1,11.4-4.8,12.3-4.7
	C43.8,73,43.8,78.4,43.8,83.8z M64,83.8c0,1.7,0.2,7.1-3.9,11.5c-4.7,5.1-11.4,4.8-12.3,4.7c0-5.4,0-10.8,0-16.2l0,0
	c0-5.4,0-10.8,0-16.2c1-0.1,7.6-0.4,12.3,4.7C64.2,76.6,64.1,82,64,83.8C64,83.7,64,83.7,64,83.8L64,83.8z M98.8,83.8L98.8,83.8
	c0,5.5,0,10.9,0,16.3c-1,0.1-7.6,0.4-12.3-4.7c-4.1-4.4-3.9-9.8-3.9-11.5l0,0l0,0c0-1.7-0.2-7.1,3.9-11.5c4.7-5.1,11.4-4.8,12.3-4.7
	C98.8,72.9,98.8,78.4,98.8,83.8z M119,83.8c0,1.7,0.2,7.1-3.9,11.5c-4.7,5.1-11.4,4.8-12.3,4.7c0-5.4,0-10.8,0-16.2l0,0
	c0-5.4,0-10.8,0-16.2c1-0.1,7.6-0.4,12.3,4.7C119.1,76.6,119,82,119,83.8C119,83.7,119,83.7,119,83.8L119,83.8z"/>
</svg>
