<svg xmlns="http://www.w3.org/2000/svg" viewBox="0 0 90 90">
  <path d="M26.6,3.8C-5,16.4-9.5,62.6,18.9,81.1l0.1-0.1c-2.1-3.3-4.7-6.4-7.5-9.2l0.9,0.1c-1.6-2-1-5.2-3.6-6.5L9,65.1
    l1,0.5l0.2-0.1c-0.8-1.7-0.9-3.6-1-5.5c0-0.3,0-0.7-0.4-0.4l0.2-2c3.8,9.6,10.7,17.1,17.6,24.5c1.1,1,2.9-0.1,3.8,1
    c0.6,0.5,1.7,1,2.3,1.4v0.2c-1.2,0.5-2.6,0.1-3.8,0.3c0.1,0.6,1.2,0.6,0.8,1.5c2.4,0.9,5,1.5,7.6,1.8c-1.6-0.6-2.9-1.8-3.7-3.3
    c0.6-0.1,1.3-0.5,1.7-0.3c4.3,2.9,1.4-1.5,4.9-2.9c0.8,0.3,0.7,0.2,1.2-0.6c2-1.9,5.6,0.6,7.3-1.6c2.6,0.5,2.7-2.5,3.7-4.2l0.3,1.1
    l0.3,0.1c0-1.2,0.5-2.4,1.4-3.3c0.5-0.1,2.1,0.3,2.4-0.4c1.4-3.1,1.4-6.3,1.9-9.6c0,5.4,2.1,1.9,1.8-1.1c0.3,0.9,0,2.1,0.4,2.9
    c1.3-0.4,1.7-1.6,1.6-2.8c0.7,4.1,0.8,8.4,0.1,12.5c2.5-0.3,5-2.2,5.4-4.7l0.5,0.2l0.8-3.6v3.4h0.3l0.9-1.4V70l0.2,0.1
    c0.4-0.5,0.8-1.4,1.5-1.7c0.5,0.1,1-0.3,0.9-0.8c0.1-1.6,2.5-1.4,3-3.1c1.8-3.5,6.2-11.8,4.9-15.2c1.4-0.5,1.3-2.2,1.3-3.4h0.1
    c0,3,1.8,6.3-0.1,9c-0.4,1.9-0.6,4-2.3,5.2c-1.2,10.3-10,18-17.7,24.1l0.1,0.2c3.5-1.6,6.2-4.4,9.9-5.9l0.1,0.1L70.5,81
    c12.2-7.8,19.2-22,19.3-36.3C90.7,13.2,54.8-9.3,26.6,3.8z M42.5,72.7C42.3,73.1,35,54,35,54l-18.7-6.4l49.9-24.9
    C58.2,39.4,50.7,55.4,42.5,72.7z"/>
</svg>