<svg xmlns="http://www.w3.org/2000/svg" viewBox="0 0 244.7 362">
  <g data-name="Layer 2">
    <path
      d="M150 53.7h7.8v17.7H148V70q-1.4-2.1-2-2.1h-10v1.4h-2V101a52.8 52.8 0 00-11.4-1.4 55.5 55.5 0 00-12 1.4V69.3H109v-1.4H99q-.6 0-1.4 1.4l-.7 2.1h-9.9V53.7h10v1.4q1.4 1.5 2 1.5h15q2-2.9 2-11.4a2.9 2.9 0 01.7-2V20.4h-5V4.9h2.2a8.7 8.7 0 007-3.5V.7h.8V0h.7l.7.7h1.4v.7A7 7 0 00131 5h2.1v15.6h-5v22.6a2.9 2.9 0 01.8 2.2q0 8.4 2.8 11.3h14.1q.7 0 2.1-1.5v-1.4zM111.3 278a35 35 0 0111.3-3.6 35 35 0 0111.3 3.6v43.8q0 29.7-9.9 39.6l-1.4.7-1.4-.7q-10-10-10-39.6zm60-61.5q2.2 0 2.2 7.7l-.4 14.2q-.4 12-.3 15.5-.7 19.8-6.4 24.8-8.5 7.7-15.5 2.8-18.4-12-28.3-12.7-10.6.7-26.9 12h-1.4v-.7a1.2 1.2 0 00-1.4-.4q-.7.4-.7-.3a1.8 1.8 0 00-2.8 0l-1.5-1.4a16.4 16.4 0 003.6-2.2l1.4-1.4a1.2 1.2 0 00-1.4-1.4H90a27.4 27.4 0 013.5-1.4 8.2 8.2 0 012.1-1.4 2 2 0 011.4-.7l.4-.4 1-.3 2.2-1.4q1.4-.7 1.4-1.5l1.4-.7 3.9-2.8q1-.8.3-1.4a3 3 0 00-2.8 0q-3.5 2.1-5 2.1l-.6.7a7.7 7.7 0 01-2.9 1.4q-.7.7-7.7 4.3-2.2 1.4-3.6.7a6.9 6.9 0 00-3.5 1.4q0-.7-1.4-.7a12.4 12.4 0 01-3.6 1.4h-.7l-.7-1.4a1.4 1.4 0 001-.4l.4-.3h.7l.8-.7a2 2 0 001.4-.7 2 2 0 011.4-.7v-.7a5.5 5.5 0 01-1.4 1l-.7.4a3.1 3.1 0 00-1.5.3l-.7.4a37.7 37.7 0 01-4.2-15.6l-.7-20.5 1.8-1.7 2.8-2.5c1.9-1.6 2.7-2.4 2.5-2.1v5q0 22.5 2 24.7.8 1.4 3.6 1t3.5-3.9q0-3.5 5-8.1a40.9 40.9 0 019.2-6.7q14.1-5 20.5-5t20.5 5a35 35 0 018.8 6.7q4.6 4.6 5.3 8.1t3.2 4a4.3 4.3 0 004-1.1q2-2.2 2-24.8a43.8 43.8 0 011-11q1.2-3.8 2.6-3.8zm-99 20.5a2.9 2.9 0 012.2-.8l1.4-.7h.7a19.7 19.7 0 01-4.2 1.5zm5.8 2v.8h-1.5zm-25.5-33.2l.7-.7h.7l1.4-1.4.7.7v-1l.7-.4a11.6 11.6 0 00-.7 3.6q-.7 2.8 2.5 7.7t3.2 5.7q-.7 2.1-2.1 2.1a20.3 20.3 0 01-11.3-9.2l1.4-1.4q-.7-.7-.7 0l-.7.7-.8-.7q1.5 0 .8-1.4v-2.1h.7q.7.7.7 0l.7-.7h.7v-.7h.7zm-2.8 3.6l.7-.7v.7zm5-52.3a5.4 5.4 0 012-.7q-1.4 1.4-2 .7zm6.3 27.5a2 2 0 00-1.4.7l-.7.7a4.6 4.6 0 01-2.2 2.2 18.4 18.4 0 01-5 2.8l5-4.2q.7 0 1.5-1.5l.7-.3 1.4-.4.7-1.4h.7a2 2 0 01-.7 1.4zm8.5-45.2q.7 0 .7 1.4l-1.4-.7zm-3.6 56.5a2.3 2.3 0 012.2-1.4 8.2 8.2 0 01-2.2 1.4zm10.6-14a.6.6 0 01.7.6h-.7l-.7.7-.7-.7zm-2-1.5q0-1.4 2-1.4-1.4 1.4-2 1.4zm3.5-.7q.7 0 .7 1.4zm-1.5 3.5h2.2l-1.5.7zm7.1 18.4q0 .7-1.4 2.1v.7h-1.4a1.4 1.4 0 00.7-2q-.7-1.5 0-2.2l.7-.7a2.9 2.9 0 00-2.1.7h-2.9a5.4 5.4 0 012.2-.7 2.9 2.9 0 002-.7H83l-.7 1.4-.7 1.4q1.4-.7 2.1 0zm.7-12.7v1.4a6.3 6.3 0 01-.7-2.8zm-2.1-2.1v-.8l1.4-1.4q-.7 2.2-1.4 2.2zm2.8-2.2a.9.9 0 010-1.4q0-.7 1.4 0v2.1H85zm0-4.2q.7-1.4 1.4-1.4-.7 1.4-1.4 1.4zm-4.2-5q-.7-.7.7-1.4a11.6 11.6 0 012.8-.7 5.4 5.4 0 002.1-.7l.7-.7a62.9 62.9 0 01-6.3 3.5zm0 6.4q1.4.7 0 2.1.7-.7 0-2zm5 14.1h-1.5q0-.7 1.4 0a2 2 0 011.4-.7 2 2 0 01-1.4.7zm.6 25.5a8.2 8.2 0 002.2-1.4h.7q0 .7-2.9 1.4zm2.2 2.1a.6.6 0 01.7-.7zm-.8-42.4h-.7q-.7-.7 0-.7a4 4 0 002.9-1.4q.7-.7 0-2.1 1.4 1.4 0 2a2.3 2.3 0 01-1.4 2.2zm.8-5.7q0-.7 1.4-.7v.7l-1.4 1.5zm2 51V224a.6.6 0 01.8-.7 5.8 5.8 0 00.3 1.8 1.6 1.6 0 01-.3 1.8zm7.1-11.4q0 .7-1 1.1a4.4 4.4 0 00-1.8 1q-.7.8-1.4-.6l.7-1.5a21 21 0 002.8-2v.6a.6.6 0 00.7.7h1.5zm-4.2-38.8h1.4q0 .7-1.4 1.4a.9.9 0 010-1.4zm-24.7-.8h1.4a.9.9 0 01-1.4 0zM90 273l-1.4.7a2 2 0 001.4-.7zm-13.5-46l-1.4.8a27.4 27.4 0 00-3.5 1.4 10.7 10.7 0 014.2-3.6l1.4-1.4a43.3 43.3 0 00-5.6 3.6V224q0-7.7 2.1-7.7 3.5 0 5 9.1-.7 0-2.2 1.5zm123-20.4a27.6 27.6 0 01-2 5.6 14 14 0 01-3.6 4.6 31.6 31.6 0 01-3.9 2.8l-3.2 1.8-1.4.7-1.4-.7a2 2 0 01-.7-1.4q0-.7 3.2-5.7t3.2-7.7a10.4 10.4 0 00-4.3-7.5q-3.5-2.4-11.3 1-12 7.2-12.7 18.5v7l-.4 7.5c-.3 5-.8 6-1.7 3.1l-1.5.4h-1.7q-1.8 0-1.4-1t-1.8-2.9q-2.1-1.8-.7-5.6-2.8-17.7-29.7-17.7T92.8 227a18.4 18.4 0 01-.7 5.6 5.3 5.3 0 01-1.8 2.8 10.5 10.5 0 00-1.4 1.1q-.3.4-1.8 0l-1.4-.4q-2 0-2-10.6v-2.8l2-2.1q3.6-1.4 3.6-3.5l-3.6 2.8-.7.7-1.4.7v-2.8a17.8 17.8 0 00-4.2-12l-.7-.8a37 37 0 00-7.8-5.6l-3.6-2.1.8-.7-1.5.7h-2l1.3-1.4-2 1.4a7 7 0 00-6.5 3.5l-.7 1.4a2 2 0 00-1.4-.7q-1.4.7-1.4 1.4l-.7 1.4h-1.4a.6.6 0 01-.7.7h-.7l-.7.8.7.7-1.4.7q-.7-.7-1.1-.7h-.4l.8-1.5.7-.7 2.8-1.4a.6.6 0 00.7.7V203l1.4-1.4 1.4-.7 2.9-2.8q1.4-1.4 1.4-2.2l-1.4.8q-.8 0-1.5 1.4l-2.8 2a9.4 9.4 0 01-5.6 2.2 2.9 2.9 0 01-2.2-.7v-2.1l.7-.7 1.5-2.1q0-1.5-.8 0l-.7.7q-.7 0-.7-2.2l2.2-1.4a2 2 0 00-1.5.7l3.6-12.7q1.4-3.5 1.4-15.9t.7-14.5l9.9-5 2.8-2.8 2.9-1.4v-1.4h-.8l-4.9 3.5-2.8 1.4-4.3 2.9-2.8 1.4a10.8 10.8 0 014.6-4.6 22.5 22.5 0 003.9-2.5l4.2-4.2v-.7a2 2 0 001.4-.7h-2.8Q85 106 122.5 106a78 78 0 0116.6 1.7 55.2 55.2 0 0114.1 5 91.4 91.4 0 0111.4 7 59.3 59.3 0 018.8 7.8l6 7a34 34 0 013.5 5.4 8.5 8.5 0 011.1 2.8q0 .7 3.9 2.8a8.3 8.3 0 014.6 5.7q.7 2.8.7 14.5t1.4 16q0 2 2.1 7.3a49.1 49.1 0 012.9 9.2 23.5 23.5 0 010 8.2zM172 145.6a38.5 38.5 0 00-4.6-1.7l-6.7-2.1q-3.5-1.1-7.1-1.8-3.5-.7-6.7-1t-4.6-.4q-2.8 0-3.2 1.4a34.3 34.3 0 00-.3 6.4v5.6q.7 11.3 7 14.9 2.1 1.4 13.8 3.1a129.2 129.2 0 0016 1.8q5.6-.7 5.6-8.5 2.1-10.6-9.2-17.7zm-36 29.7q0-6.3-4.3-15.5t-9.2-9.2q-2.1 0-4.6 2.8a37.2 37.2 0 00-4.6 6.7 34.3 34.3 0 00-3.2 8.2 30.2 30.2 0 00-1 7q0 7.1 2 10.6t9.3 0h4.2q6.4 4.3 8.9.4t2.4-11zm-33.3-36.7q-4.2 0-15.2 2.5T73 145.6q-11.3 7.1-9.2 17.7 0 8.5 5.7 8.5l12.7-1.4-2.8 2.1a5.4 5.4 0 00-2.2.7q-1.4.7-1.4 1.4a2.9 2.9 0 00-2 .7l-1.5.8h-.7l-2.1 1.4a.9.9 0 00-1.4 0l-1.5 1.4-1.4 2.1v-.7l-2.1 2.1h-.7a.9.9 0 001.4 0l1.4-1.4 2.9-1.4a.6.6 0 01.7-.7h.7q.7 0 .7-1.4l5-2.2 4.2-2 .7-.8 4.2-2.1q12.7-2.1 14.9-3.5 6.3-3.6 7-14.9v-10.2l-.7-2.5q-.7-2.5-2.8-.7zM80.1 299.8l19 3.5V316L78 312.5l-2.2-.7a11.4 11.4 0 01-5 1.4q-4.9.7-7.7-2.1l-19-14.9a10.2 10.2 0 01-3.6-10.6L27.8 268l-.8-2.2q-6.3-.7-8.4-5.6L7.2 239q-2.8-5.7 1.5-11.3l-4.3-21.2v-3.6l-2.8-2.8a12.6 12.6 0 01-1.4-8.5l5-23.3a10.7 10.7 0 017-7.8v-1.4l8.5-20.5q-2.8-6.4.7-11.3l14.1-19.1a10.7 10.7 0 018.5-4.3l4.3.7 2-1.4 18.5-8.5q1.4-7 7.7-9.1l22.7-6.4v5L78 90.4a8.9 8.9 0 00-3.6 2.1q4.3 0 5.7 4.3a5 5 0 01-.7 5.6h2L99.3 97v5l-16.3 4.9-2.8.7a12.6 12.6 0 01-5.7-1.4l-19 8.4a11.5 11.5 0 01-2.2 7.1l-14.1 19.1a11.6 11.6 0 01-7.8 4.2l-7 18.4q3.5 5 2.7 10l-5 23.3a13.6 13.6 0 01-5.6 7l4.3 19.8q5 1.4 6.3 5.7l11.4 21.2a9 9 0 010 8.5l-.8 1.4 12 16.2a13.2 13.2 0 018.6 2.9l18.3 14.1a9.5 9.5 0 013.6 6.4zm-4.3.7a4.6 4.6 0 00-2-2.8l-18.5-14.9-2.8-1.4a6 6 0 01-2.1 7 8.7 8.7 0 01-5 1.5 11 11 0 002.1 2.8L66 307.6a7.6 7.6 0 004.3 1.4l2.8-1.4v-2.9a4.5 4.5 0 012.8-4.2zm-41.7-48l-10.6-21.3-2.1-2.1q-.7 5-5 5.6a8.7 8.7 0 01-5-1.4 4.6 4.6 0 000 3.6L22.9 258q.7 2.8 4.2 3.5a4.6 4.6 0 012.2-2.8 6 6 0 015-.7 6 6 0 000-5.7zM9.4 198.6a6 6 0 015 .7A6.9 6.9 0 0017 195l5-22.6a8 8 0 00-.7-5.6 8 8 0 01-5.7.7 4.6 4.6 0 01-2-2.2 6.3 6.3 0 00-3.6 4.3L4.4 193a5.7 5.7 0 002.8 6.4zm14.8-65a6 6 0 015-.8q4.2 2.1 4.2 6.4l2.1-1.4 14.2-19.1a4.8 4.8 0 001.4-3.6 6.3 6.3 0 01-4.3-3.5l-.7-2.8h-2a4.8 4.8 0 00-4.3 2.1l-14.9 19a7.9 7.9 0 00-.7 3.6zm219.2 67.1a12.6 12.6 0 01-3.5 3.5 4.6 4.6 0 010 3.6l-5 21.2a11 11 0 01.7 11.3l-12 21.2a10.8 10.8 0 01-8.5 5.7l-.7.7-12.7 18.3A10.2 10.2 0 01198 297l-18.3 14.8a7 7 0 01-6 2.8 14.9 14.9 0 01-6.8-1.4l-2 .7-19.9 3.6v-12.8l17-3.5a27.7 27.7 0 013.5-6.4L184 280a15.5 15.5 0 016.4-2.8h2l11.4-16.3q-1.4-6.4.7-10.6l11.3-20.5a8.8 8.8 0 017-5l5-19.8q-4.2-4.2-5-7.7l-5.6-22.7a13.6 13.6 0 011.4-8.4l1.5-1.5-7.8-18.3a11.6 11.6 0 01-7.8-4.3l-14.8-19a9.5 9.5 0 01-2.2-7.9l-14.8-7.7-3.5 1.4a15.7 15.7 0 01-5-.7l-19-7.8v-5l20.4 8.5h2.1a4.7 4.7 0 01-.7-6.3q2.2-4.3 6.4-3.6a11 11 0 00-2.8-2l-22-9.3h-2.8l-.7-5a15.7 15.7 0 015 .8l21.9 9.2q6.3 2 7 8.5l17.7 9.1a11.6 11.6 0 0110.6 4.3l14.2 18.4q4.2 5 1.4 11.3l8.5 20.5.7 2.1a9 9 0 017 7l5 23.4a10.7 10.7 0 01-.7 8.5zm-3.5-7l-5.7-23.4a6.3 6.3 0 00-3.5-4.2l-2.9 2a8.8 8.8 0 01-5 0 8.7 8.7 0 00-1.3 5l5.6 23.4a6.3 6.3 0 003.6 4.2 4.7 4.7 0 014.2-.7l1.4.7q5-2.1 3.6-7zm-7.8 41a6 6 0 01-5 .6q-5-.7-5-5.6l-2 2.1-11.3 21.2a6 6 0 00-.8 5 8.7 8.7 0 015 1.4 4.6 4.6 0 012.1 2.8 8.9 8.9 0 005-3.5l11.3-20.5a7.9 7.9 0 00.7-3.6zm-34.7 55a8 8 0 01-5.6-.6q-3.6-2.1-2.1-7l-2.9 1.3-17.6 14.9a4.2 4.2 0 00-2.2 3.5 6.9 6.9 0 012.9 4.2v2.9q2 1.4 3.5.7a4.8 4.8 0 003.5-1.4l18.4-14.9a8.9 8.9 0 002.1-3.5zm22-155.5a4.8 4.8 0 00-1.5-3.5l-14.8-18.4q-.7-1.4-3.5-2.1a6.5 6.5 0 010 4.2 6.4 6.4 0 01-7.8 2.9l1.4 2.8 14.8 19 2.2 1.5q0-4.2 4.2-6.4a8.8 8.8 0 015 0z"
      data-name="Layer 1"></path>
  </g>
</svg>